ISO-10303-21;
HEADER;
FILE_DESCRIPTION(('GENERIC-RES-0603 bounding solid (first-party stub)'),'2;1');
FILE_NAME('GENERIC-RES-0603.step','2026-06-14T00:00:00',('offtheshelf'),(''),'makerbench-unified-component','','');
FILE_SCHEMA(('AUTOMOTIVE_DESIGN { 1 0 10303 214 1 1 1 1 }'));
ENDSEC;
DATA;
#1=CARTESIAN_POINT('',(0.000,0.000,0.000));
#2=CARTESIAN_POINT('',(0.000,0.000,0.450));
#3=CARTESIAN_POINT('',(0.000,0.800,0.000));
#4=CARTESIAN_POINT('',(0.000,0.800,0.450));
#5=CARTESIAN_POINT('',(1.600,0.000,0.000));
#6=CARTESIAN_POINT('',(1.600,0.000,0.450));
#7=CARTESIAN_POINT('',(1.600,0.800,0.000));
#8=CARTESIAN_POINT('',(1.600,0.800,0.450));
ENDSEC;
END-ISO-10303-21;
